<svg width="64" height="64" viewBox="0 0 64 64" fill="none" xmlns="http://www.w3.org/2000/svg">
<g filter="url(#filter0_d_274_87)">
<rect x="4.42407" y="4.63336" width="55.1519" height="55.1519" rx="4" fill="#DDDDDD"/>
</g>
<path d="M24.3701 45.8145C23.2756 45.8145 22.2744 45.5472 21.3665 45.0127C20.4587 44.4697 19.7375 43.7442 19.2029 42.8364C18.6684 41.9285 18.4011 40.9316 18.4011 39.8455C18.4011 38.7425 18.6684 37.7413 19.2029 36.8419C19.7375 35.9341 20.4587 35.2086 21.3665 34.6656C22.2744 34.1226 23.2713 33.8511 24.3574 33.8511H26.8773V30.5421H24.3574C23.2713 30.5421 22.2744 30.2748 21.3665 29.7402C20.4587 29.2057 19.7375 28.4888 19.2029 27.5894C18.6684 26.6815 18.4011 25.6761 18.4011 24.5731C18.4011 23.4701 18.6684 22.4689 19.2029 21.5695C19.7375 20.6701 20.4587 19.9532 21.3665 19.4186C22.2744 18.8756 23.2713 18.6041 24.3574 18.6041C25.4689 18.6041 26.4743 18.8756 27.3737 19.4186C28.2815 19.9532 29.0027 20.6701 29.5373 21.5695C30.0803 22.4689 30.3518 23.4701 30.3518 24.5731V27.0548H33.6736V24.5731C33.6736 23.4701 33.9408 22.4689 34.4754 21.5695C35.0099 20.6701 35.7269 19.9532 36.6262 19.4186C37.5341 18.8756 38.5353 18.6041 39.6298 18.6041C40.7328 18.6041 41.734 18.8756 42.6334 19.4186C43.5413 19.9532 44.2625 20.6701 44.797 21.5695C45.3315 22.4689 45.5988 23.4701 45.5988 24.5731C45.5988 25.6761 45.3315 26.6815 44.797 27.5894C44.2625 28.4888 43.5413 29.2057 42.6334 29.7402C41.734 30.2748 40.7328 30.5421 39.6298 30.5421H37.1481V33.8511H39.6298C40.7328 33.8511 41.734 34.1226 42.6334 34.6656C43.5413 35.2086 44.2625 35.9341 44.797 36.8419C45.3315 37.7413 45.5988 38.7425 45.5988 39.8455C45.5988 40.94 45.3315 41.9412 44.797 42.8491C44.2625 43.7485 43.5413 44.4697 42.6334 45.0127C41.734 45.5472 40.7328 45.8145 39.6298 45.8145C38.5353 45.8145 37.5341 45.5472 36.6262 45.0127C35.7269 44.4697 35.0099 43.7442 34.4754 42.8364C33.9408 41.9285 33.6736 40.9316 33.6736 39.8455V37.3383H30.3518V39.8455C30.3518 40.9316 30.0803 41.9285 29.5373 42.8364C29.0027 43.7442 28.2815 44.4697 27.3737 45.0127C26.4743 45.5472 25.4731 45.8145 24.3701 45.8145ZM24.3574 42.3273C24.824 42.3273 25.244 42.217 25.6174 41.9964C25.9992 41.7758 26.3046 41.4746 26.5337 41.0928C26.7628 40.711 26.8773 40.2952 26.8773 39.8455V37.3383H24.3701C23.9119 37.3383 23.4919 37.4528 23.1101 37.6819C22.7368 37.9025 22.4356 38.2037 22.2065 38.5855C21.9859 38.9674 21.8756 39.3873 21.8756 39.8455C21.8756 40.2952 21.9859 40.711 22.2065 41.0928C22.4356 41.4746 22.7368 41.7758 23.1101 41.9964C23.4919 42.217 23.9077 42.3273 24.3574 42.3273ZM24.3574 27.0548H26.8773V24.5731C26.8773 24.1149 26.7628 23.6991 26.5337 23.3258C26.3046 22.944 25.9992 22.6428 25.6174 22.4222C25.244 22.2016 24.824 22.0913 24.3574 22.0913C23.9077 22.0913 23.4919 22.2016 23.1101 22.4222C22.7368 22.6428 22.4356 22.944 22.2065 23.3258C21.9859 23.6991 21.8756 24.1149 21.8756 24.5731C21.8756 25.0312 21.9859 25.4512 22.2065 25.833C22.4356 26.2064 22.7368 26.5033 23.1101 26.7239C23.4919 26.9445 23.9077 27.0548 24.3574 27.0548ZM37.1481 27.0548H39.6298C40.0965 27.0548 40.5165 26.9445 40.8898 26.7239C41.2631 26.5033 41.5601 26.2064 41.7807 25.833C42.0098 25.4512 42.1243 25.0312 42.1243 24.5731C42.1243 24.1149 42.0098 23.6991 41.7807 23.3258C41.5601 22.944 41.2631 22.6428 40.8898 22.4222C40.5165 22.2016 40.0965 22.0913 39.6298 22.0913C39.1717 22.0913 38.7517 22.2016 38.3698 22.4222C37.9965 22.6428 37.6996 22.944 37.479 23.3258C37.2584 23.6991 37.1481 24.1149 37.1481 24.5731V27.0548ZM39.6426 42.3273C40.1007 42.3273 40.5165 42.217 40.8898 41.9964C41.2631 41.7758 41.5601 41.4746 41.7807 41.0928C42.0098 40.711 42.1243 40.2952 42.1243 39.8455C42.1243 39.3873 42.0098 38.9674 41.7807 38.5855C41.5601 38.2037 41.2631 37.9025 40.8898 37.6819C40.5165 37.4528 40.0965 37.3383 39.6298 37.3383H37.1481V39.8455C37.1481 40.3037 37.2584 40.7237 37.479 41.1055C37.6996 41.4788 37.9965 41.7758 38.3698 41.9964C38.7517 42.217 39.1759 42.3273 39.6426 42.3273ZM30.3518 33.8511H33.6736V30.5421H30.3518V33.8511Z" fill="black"/>
<defs>
<filter id="filter0_d_274_87" x="2.42407" y="4.63336" width="59.1519" height="59.1519" filterUnits="userSpaceOnUse" color-interpolation-filters="sRGB">
<feFlood flood-opacity="0" result="BackgroundImageFix"/>
<feColorMatrix in="SourceAlpha" type="matrix" values="0 0 0 0 0 0 0 0 0 0 0 0 0 0 0 0 0 0 127 0" result="hardAlpha"/>
<feOffset dy="2"/>
<feGaussianBlur stdDeviation="1"/>
<feComposite in2="hardAlpha" operator="out"/>
<feColorMatrix type="matrix" values="0 0 0 0 0 0 0 0 0 0 0 0 0 0 0 0 0 0 0.25 0"/>
<feBlend mode="normal" in2="BackgroundImageFix" result="effect1_dropShadow_274_87"/>
<feBlend mode="normal" in="SourceGraphic" in2="effect1_dropShadow_274_87" result="shape"/>
</filter>
</defs>
</svg>
